<?xml version="1.0" standalone="no"?>
<!DOCTYPE svg PUBLIC "-//W3C//DTD SVG 1.1//EN" "http://www.w3.org/Graphics/SVG/1.1/DTD/svg11.dtd" >
<svg xmlns="http://www.w3.org/2000/svg" xmlns:xlink="http://www.w3.org/1999/xlink" version="1.1" viewBox="-10 0 1034 1024">
   <path fill="currentColor"
d="M362 180q45 29 20 49q-24 25 -37 139q4 82 9 110q0 33 -66 61q-12 -4 -20 -20q-4 -16 -21 -12q0 228 13 298q12 68 -61 101q-29 -29 -21 -122q8 -98 12 -367q17 0 57 73q29 9 33 -24q0 -33 -16 -139q-17 -4 -49 0q-33 0 -57 -65q114 -61 126 -90q8 -28 78 8zM835 922
q-29 24 -102 8q-78 -20 -273 16q-82 9 -82 -97q25 16 155 -16v-57q-90 8 -114 -90q32 8 114 -24q16 -41 0 -66l-49 33q-24 -20 -16 -57q4 -37 8 -65q-33 0 -61 4q-29 0 -45 -37q0 -16 16 -24q25 8 90 -33q8 -33 -8 -90q20 8 49 21q24 12 24 44q8 0 82 -32q8 -123 -4 -184
t4 -77q139 49 134 94q-8 40 -28 118q33 12 57 16q20 4 8 41q-8 29 -20 33q-17 4 -45 8q-8 90 -12 130q0 45 -62 57q-24 0 -48 -65q16 -16 16 -81q-16 -9 -65 16q0 57 -25 106q4 0 53 12q45 17 53 37q0 -8 33 -16q24 8 45 20q24 8 20 45q-4 45 -28 49q-25 8 -54 24l-8 82
q90 0 115 -16q40 32 73 48q29 16 0 65zM484 205q74 36 61 65q-12 25 -85 16q-25 9 -57 17q0 -4 28 -41q29 -37 53 -57z" />
</svg>
