<?xml version="1.0" standalone="no"?>
<!DOCTYPE svg PUBLIC "-//W3C//DTD SVG 1.1//EN" "http://www.w3.org/Graphics/SVG/1.1/DTD/svg11.dtd" >
<svg xmlns="http://www.w3.org/2000/svg" xmlns:xlink="http://www.w3.org/1999/xlink" version="1.1" viewBox="-10 0 266 256">
   <path fill="currentColor"
d="M168 45q10 5 16 9q2 4 -2 5q-6 0 -9 7q-5 7 -10 20q3 0 0 9q-4 7 -3 17q15 -5 15 -8q1 -1 3 -2q3 -1 7 -2l4 -2q1 0 2 2q2 3 -3 5t-10 9q0 -1 -1 1q-3 4 -2 -1q1 -4 -5 -2q-3 2 -10 2q-2 33 4 39q3 -1 10 -4q5 -3 7 -4q3 -2 6 -2t6 1v2q-8 4 -15 17q-26 41 -53 48
q-3 -1 0 -2q31 -17 56 -58q-1 1 -4 2q-14 6 -20 9q-12 6 -21 9q-4 2 -5 -3q-1 -1 1 -1q0 1 4 0q2 0 3 -1q13 -5 20 -10q-2 -2 -8 -7q-3 -2 1 -5q3 -2 3 -7q-1 -12 2 -42q0 -6 -7 -9q-2 -2 1 -1h7q2 -6 4 -10q5 -14 7 -18t-2 -9q-2 -1 -2 -2q1 -1 3 -1zM203 71l2 4q2 1 3 2
q4 2 6 4q1 5 0 7q-5 2 -5 5q-2 15 -2 27q1 11 1 23q-1 9 1 14q2 14 -4 12q-3 2 -4 -3q-2 -3 -5 -6q-3 -1 -6 -5q-2 -1 0 -1q1 1 4 2h6q3 1 3 -4v-15v-17q-1 -1 -1 -5q-1 -15 -1 -33q0 -8 -3 -9t-11 3q-10 6 -15 4q-2 0 -2 -1t2 -2q4 -1 7 -3q20 -8 24 -3zM200 19q4 -2 20 5
q1 3 0 6q-4 2 -8 1q-8 0 -13 3q-10 4 -25 6q-5 0 -1 -2q8 -2 20 -8q2 -3 -5 -1q-22 8 -38 5q-5 -1 0 -2q33 -5 50 -13zM114 22q1 -3 6 -3l4 2q7 2 10 4q1 1 0 2q0 1 -2 1q-10 -1 -24 4q-4 2 -5 2q1 2 3 3q2 2 0 2l-1 1q-3 1 -3 3q-6 12 -12 20q16 8 22 12q3 -1 7 -2
q-1 -4 2 -5q0 -1 3 -1q4 5 10 6q2 1 1 4q0 3 -4 2q-7 -1 -17 1q-19 6 -34 14q-4 2 -5 2t2 -2t14 -8q1 0 1 -1q-15 4 -37 11q-6 4 -15 3q-4 0 1 -2q20 -7 63 -20q-8 -5 -16 -11q-13 14 -30 22q-5 1 0 -2q14 -6 26 -22q-10 -5 -26 -12q-6 -2 1 -1q14 4 27 10q9 -15 12 -22v-3
q-8 3 -16 10q-7 4 -2 -1q10 -9 3 -7q-3 2 -14 5l-6 2q-11 3 -19 -1q-4 -1 1 -1q11 1 55 -13q9 -2 14 -8zM70 102q1 0 1 1t-1 2q-3 2 -2 6t0 4q-6 0 -6 11q-13 60 -43 100q-3 3 -1 -1q35 -54 40 -101q1 -10 0 -10q-4 -2 12 -12zM186 172q15 12 32 27q2 3 4 3q8 4 8 12
q-2 4 -6 2q-5 -2 -9 -8q-16 -19 -30 -34q-2 -2 1 -2zM108 168q2 1 6 2h6q-2 6 -3 6q-4 1 -9 5q-1 1 -2 1q-23 21 -48 32q-3 0 0 -2q16 -9 36 -26q7 -5 8 -10q3 -9 6 -8zM102 129q1 1 4 2q7 2 10 3q1 2 0 4q-10 3 -14 7q-28 26 -40 32q-3 1 -1 -1q12 -11 24 -21q6 -5 11 -10
q8 -10 3 -13q-1 -3 3 -3zM69 6q19 4 29 15q1 4 -1 7t-5 0q-3 -2 -10 -5q-1 0 -1 -1q-4 -1 -2 -5q3 -1 -10 -10q-5 -2 0 -1zM101 97q0 1 1 1q3 1 4 2q2 2 0 3t-1 1q-8 5 -9 8q-16 20 -32 27q-4 2 -1 -1q18 -12 31 -32q1 -1 3 -6q1 -4 4 -3zM190 123q-2 6 -9 6q-3 1 -7 4l-1 1
q-2 3 -1 0v-1q-1 -1 -3 -1q-4 0 -2 -1q1 0 4 -2q2 -1 3 -2q5 -4 14 -7q1 1 2 3z" />
</svg>
