<?xml version="1.0" standalone="no"?>
<!DOCTYPE svg PUBLIC "-//W3C//DTD SVG 1.1//EN" "http://www.w3.org/Graphics/SVG/1.1/DTD/svg11.dtd" >
<svg xmlns="http://www.w3.org/2000/svg" xmlns:xlink="http://www.w3.org/1999/xlink" version="1.1" viewBox="-10 0 273 256">
   <path fill="currentColor"
d="M121 111l9 6q2 2 0 3t-5 0q-9 -3 -21 1q-2 16 -3 40q2 1 4 1q9 1 14 3q2 4 -1 4q-10 1 -11 -2h-3q-3 -1 -4 -2q-4 25 -10 36q-3 3 -3 7q-1 3 -6 0q-3 -2 -8 -4q-6 -4 -9 -7t1 -2q2 1 5 2q7 3 11 2q4 1 7 -4q5 -14 8 -30q-25 0 -48 9q-7 3 -9 6q-4 3 -5 -1q-4 -6 1 -8
q8 -6 12 -36q-5 2 -13 5q-7 2 -16 5q-3 2 -9 -2q-2 -1 1 -2q12 -1 38 -10v-15q0 -7 -1 -12q0 -3 3 -2q3 2 5 4q3 2 0 5q-1 1 -2 4v3q0 2 -1 5v7q23 -7 47 -13q0 -10 -1 -15v-14q-3 -9 -14 -7q-7 2 -18 7q-8 5 -14 4q-4 0 -1 -2q7 -2 15 -7q10 -5 22 -7q3 -4 24 15q2 2 2 4
q-1 1 -3 2q-8 1 -7 19q9 0 11 -4q3 -1 6 -1zM52 134q-2 13 -7 30q-2 8 2 6q33 -8 49 -9q1 -6 2 -17q0 -12 1 -23l-8 2q-23 6 -39 11zM183 110q1 2 4 3q2 2 4 3q3 3 0 6q-4 3 -6 15v4q-2 8 -1 30q0 5 1 7q2 20 14 25q6 1 14 1h23q5 0 3 -5q-2 -19 -8 -35q-2 -6 2 -1
q5 12 10 23q3 11 8 13q2 2 2 3q-1 2 -3 2q-35 8 -52 1q-13 -4 -16 -26q-3 -29 0 -49q1 -14 0 -19q-2 -2 1 -1zM158 62q-1 -1 0 -3q1 -1 2 0q0 1 5 3q4 1 5 1q2 1 2 4q0 2 -2 2q-10 -4 -33 37q2 0 10 -3q16 -6 26 -10q7 -2 9 -8q-4 -3 -5 -5q-3 -1 1 -2q3 2 12 5q8 4 12 5
q3 3 0 6q-12 1 -15 -4q-7 5 -23 10q-23 8 -30 14q-4 3 -4 0q-5 -8 -1 -7h4q11 -19 20 -33q5 -9 5 -12zM210 28q7 2 13 6q2 1 1 2q0 1 -2 1q-19 0 -40 10q-7 3 -1 -1q2 -1 1 -2l-2 -1q-19 5 -34 9q-16 7 -24 1q-4 -1 1 -2q10 0 28 -5q9 -2 33 -7q4 -1 7 -2q9 0 10 -6
q1 -3 9 -3zM161 113q0 1 2 4q3 3 5 4q1 3 0 5q-6 2 -4 68q-1 7 3 11q2 1 0 6q-2 3 -4 0q-1 -1 -2 -3q-3 -4 -5 -10q-3 -1 5 -7q-1 -27 -1 -50q1 -7 1 -10q0 -13 -2 -16q-2 -4 2 -2zM58 16q3 1 7 5t1 11q-14 38 -37 56q-6 6 -2 -2q23 -24 32 -55q2 -10 -1 -13q-5 -3 0 -2z
M136 124q7 -3 14 0q2 1 1 3q-2 2 -5 4q-2 1 -1 4q0 62 -36 71q-4 0 0 -2q33 -14 32 -71q1 -6 -5 -7q-4 -1 0 -2zM112 51q2 1 1 4q-1 2 -3 1q-22 -2 -42 6q-8 3 -13 1q-5 -1 0 -2q2 0 9 -2q10 -4 17 -6q8 0 10 -3l1 -1q1 -5 20 2zM151 11q-4 -2 1 -1q16 3 24 14q0 5 -2 5
q-14 -6 -18 -3q-3 1 -3 0q-1 0 2 -3q4 -4 2 -5t-3 -3q-2 -2 -3 -4zM84 108q1 5 -2 5q-5 2 -6 4q-3 3 -5 2q-1 0 1 -4q0 -4 -5 -4q-2 0 -2 -1q-1 -1 1 -2q14 -4 18 0zM75 144q3 -3 9 0q2 3 -4 6q-4 4 -17 -1q-2 0 -3 -1q0 -1 2 -2q8 0 13 -2z" />
</svg>
