<?xml version="1.0" standalone="no"?>
<!DOCTYPE svg PUBLIC "-//W3C//DTD SVG 20010904//EN"
 "http://www.w3.org/TR/2001/REC-SVG-20010904/DTD/svg10.dtd">
<svg version="1.0" xmlns="http://www.w3.org/2000/svg"
 width="256.000000pt" height="256.000000pt" viewBox="0 0 256.000000 256.000000"
 preserveAspectRatio="xMidYMid meet">
<metadata>
Created by potrace 1.10, written by Peter Selinger 2001-2011
</metadata>
<g transform="translate(0.000000,256.000000) scale(0.100000,-0.100000)"
fill="#000000" stroke="none">
<path d="M1394 2204 c-31 -42 -112 -125 -179 -184 -67 -60 -141 -135 -165
-166 l-44 -58 -17 40 c-10 21 -18 46 -18 55 -1 8 -11 25 -24 37 l-23 22 -26
-28 c-49 -53 -130 -181 -144 -228 -8 -26 -14 -78 -14 -116 0 -37 -3 -68 -6
-68 -3 0 -37 19 -76 42 -86 51 -102 46 -106 -30 -4 -64 13 -311 23 -335 7 -16
2 -15 -49 4 -45 18 -59 19 -71 9 -23 -19 -19 -38 29 -159 49 -122 68 -154 133
-222 l45 -46 -26 -7 c-21 -5 -26 -12 -26 -37 0 -24 13 -45 62 -95 34 -35 81
-77 105 -92 24 -15 43 -32 43 -38 0 -25 38 -42 109 -48 69 -6 78 -9 126 -50
28 -25 88 -63 134 -87 71 -36 88 -41 127 -36 61 6 170 81 236 161 49 59 53 62
132 82 74 20 81 24 84 48 2 15 -2 33 -8 41 -9 11 0 19 47 40 50 22 64 35 96
85 20 33 37 72 37 88 0 15 12 43 28 62 29 36 94 143 131 218 41 81 12 124 -59
87 -18 -9 -34 -14 -38 -11 -3 4 4 66 16 139 26 156 29 245 8 253 -8 3 -45 -12
-83 -35 -37 -22 -68 -39 -70 -38 -1 1 -7 42 -13 90 -15 122 -54 265 -78 290
-26 26 -40 16 -84 -61 l-32 -56 -12 74 c-16 94 -53 208 -99 305 -35 73 -79
135 -95 135 -5 0 -35 -34 -66 -76z m96 26 c60 -84 123 -263 149 -422 l16 -99
37 68 c52 96 64 111 78 96 19 -18 59 -187 72 -298 6 -55 12 -101 13 -103 2 -2
36 17 78 43 41 25 80 45 86 45 6 0 11 -12 11 -27 0 -36 -57 -370 -65 -383 -9
-15 1 -12 55 15 64 33 94 33 84 3 -25 -83 -118 -233 -184 -299 -27 -27 -41
-45 -30 -39 51 28 53 -1 3 -76 -37 -55 -70 -79 -145 -103 -45 -15 -47 -23 -13
-41 48 -26 32 -44 -57 -63 -72 -15 -86 -22 -107 -50 -75 -99 -208 -197 -268
-197 -42 0 -177 70 -240 125 -48 43 -54 45 -133 51 -87 7 -109 22 -74 49 18
14 17 14 -9 15 -16 0 -38 5 -50 11 -38 19 -177 163 -177 182 0 17 5 18 53 12
l52 -7 -81 83 c-92 96 -92 94 -150 243 -28 70 -40 114 -34 120 6 6 34 0 77
-17 36 -15 68 -25 69 -24 2 2 -3 23 -10 47 -7 25 -16 110 -20 190 -4 80 -10
153 -12 163 -11 36 27 29 111 -21 l85 -51 0 88 c0 48 6 109 14 135 13 41 89
166 134 219 21 24 32 11 63 -80 l25 -77 53 70 c28 38 109 121 178 184 70 63
150 145 177 182 28 37 54 68 58 68 4 0 16 -13 28 -30z"/>
<path d="M1384 2144 c-31 -34 -102 -104 -160 -154 -57 -51 -126 -123 -154
-160 -74 -100 -76 -101 -100 -46 -12 25 -23 46 -25 46 -2 0 6 -28 17 -62 11
-35 20 -70 20 -78 0 -8 6 -30 15 -48 8 -18 11 -42 8 -54 -5 -12 -3 -18 3 -14
5 3 15 -9 22 -27 7 -17 19 -46 26 -64 8 -17 14 -37 14 -45 0 -8 4 -18 9 -24 4
-5 16 -30 26 -57 10 -26 19 -46 21 -44 2 2 -25 88 -61 191 -36 103 -65 191
-65 195 0 22 148 201 212 255 40 35 110 102 155 149 l82 86 -5 -67 c-13 -165
-55 -316 -97 -351 -10 -7 -17 -20 -17 -27 0 -44 57 23 89 103 24 62 40 148 49
269 l7 89 43 -98 c55 -125 91 -266 99 -389 4 -61 10 -98 17 -98 12 0 110 179
103 187 -3 2 -13 -8 -23 -24 -65 -106 -67 -108 -75 -88 -4 11 -8 36 -8 55 -3
98 -67 313 -124 414 -33 59 -57 55 -123 -20z"/>
<path d="M1398 2052 c-9 -15 -43 -57 -75 -92 -123 -134 -185 -216 -223 -293
-39 -77 -50 -114 -31 -102 5 3 17 29 27 58 15 44 39 74 156 193 76 78 138 146
138 150 0 5 -45 -36 -100 -91 -55 -55 -100 -97 -100 -93 0 3 41 50 91 104 84
92 147 179 137 189 -2 2 -11 -8 -20 -23z"/>
<path d="M1230 1923 c-67 -64 -126 -126 -132 -137 -5 -12 51 40 126 114 75 74
136 136 136 137 0 10 -22 -10 -130 -114z"/>
<path d="M883 1847 c-84 -94 -113 -170 -113 -299 0 -64 -3 -88 -12 -88 -7 0
-42 18 -77 41 -96 61 -97 60 -93 -106 3 -123 13 -195 38 -259 5 -14 1 -14 -42
-1 -56 17 -72 19 -59 7 17 -15 125 -55 132 -49 3 4 -4 33 -16 65 -16 42 -25
102 -34 215 -7 86 -11 157 -9 157 2 0 44 -25 94 -56 49 -30 92 -53 95 -50 3 3
5 51 4 108 -2 126 10 171 74 263 l48 70 -5 -158 c-3 -107 -1 -156 7 -154 15 5
22 51 24 147 2 149 -15 193 -56 147z"/>
<path d="M1747 1780 c-4 -19 -12 -77 -18 -129 -6 -52 -19 -123 -29 -158 -17
-62 -14 -86 9 -60 27 33 63 287 50 352 l-6 30 -6 -35z"/>
<path d="M1200 1675 c-62 -62 -115 -122 -116 -131 -2 -10 44 29 101 86 58 57
102 106 100 109 -3 2 5 15 17 28 12 13 20 23 17 23 -2 0 -56 -52 -119 -115z
m80 62 c0 -1 -44 -45 -97 -97 l-98 -95 95 98 c88 90 100 102 100 94z"/>
<path d="M1792 1697 c20 -95 30 -284 16 -293 -4 -3 -8 -12 -8 -21 0 -8 -9 -28
-20 -43 -16 -23 -18 -33 -10 -55 8 -21 15 -26 31 -22 17 5 18 3 7 -11 -26 -32
13 -1 51 41 44 49 54 71 15 36 -36 -32 -83 -63 -89 -58 -2 3 5 35 16 72 20 64
23 68 82 103 34 21 70 44 80 52 9 8 17 13 17 10 0 -21 -89 -214 -121 -262 -39
-59 -46 -76 -30 -76 39 0 175 289 158 334 -6 15 -15 12 -73 -19 -37 -19 -70
-35 -74 -35 -4 0 -10 42 -13 93 -5 94 -32 233 -46 242 -5 2 0 -37 11 -88z"/>
<path d="M857 1713 c-24 -86 -35 -191 -27 -250 3 -29 8 -54 11 -57 2 -2 15 10
28 27 23 28 23 29 4 18 -12 -6 -24 -11 -27 -11 -13 0 -5 78 9 90 16 13 10 35
-6 24 -14 -8 0 76 17 103 17 27 18 37 2 27 -8 -5 -9 -2 -4 12 11 28 19 74 14
74 -3 0 -12 -26 -21 -57z"/>
<path d="M1396 1754 c-9 -9 -26 -32 -37 -53 -11 -20 -28 -50 -39 -66 -26 -41
-50 -138 -50 -204 0 -70 12 -59 16 14 1 31 9 66 18 80 19 28 20 39 5 29 -28
-17 48 131 95 183 23 27 16 42 -8 17z"/>
<path d="M1525 1728 c-4 -18 -29 -83 -55 -144 -27 -61 -54 -129 -61 -152 -6
-23 -17 -40 -23 -39 -6 1 -12 -14 -13 -33 -10 -148 -45 -311 -73 -343 -4 -4
-10 34 -13 85 -4 51 -14 134 -23 183 -16 89 -15 235 1 299 12 45 -17 27 -32
-20 -16 -54 -15 -153 2 -259 8 -49 20 -128 25 -175 6 -47 13 -98 15 -115 5
-28 4 -28 -9 6 -21 53 -55 117 -93 175 -21 31 -32 58 -27 65 5 8 3 10 -6 4 -9
-6 -10 -1 -5 16 4 15 3 19 -3 11 -6 -9 -23 17 -55 85 -45 94 -46 96 -47 58 0
-22 3 -58 7 -80 l7 -40 6 35 6 35 20 -40 c11 -22 29 -53 39 -70 l20 -30 -38
33 c-38 32 -50 36 -97 32 -85 -7 -153 -106 -180 -262 -10 -55 -9 -71 7 -118
14 -44 25 -58 51 -70 29 -14 31 -18 19 -34 -13 -18 -16 -17 -61 18 -26 20 -54
36 -61 36 -23 0 -38 -40 -32 -84 l5 -41 -83 88 c-68 72 -89 102 -115 165 -37
89 -45 101 -36 52 14 -76 63 -153 154 -243 82 -79 87 -87 63 -88 -14 -1 -32
-1 -38 0 -7 1 -13 -3 -13 -9 0 -5 19 -10 43 -10 36 0 46 -5 69 -33 23 -30 101
-77 150 -91 9 -3 27 -24 38 -47 l22 -42 -24 6 c-12 4 -39 7 -58 7 l-35 1 28
17 c45 28 34 42 -32 42 -54 0 -64 4 -108 38 -26 21 -63 55 -80 76 -18 20 -33
32 -33 26 0 -15 69 -89 114 -122 21 -15 50 -28 63 -28 38 0 67 -19 53 -35 -15
-18 -1 -25 68 -32 49 -5 64 -12 106 -50 55 -49 158 -110 211 -124 28 -8 44 -6
77 9 57 25 165 119 203 175 26 39 37 46 90 61 33 8 46 14 29 11 -18 -2 -43 -7
-58 -11 -37 -9 -25 18 17 38 29 14 35 14 57 0 25 -16 25 -16 7 5 -18 21 -18
22 27 63 25 23 48 50 51 59 3 9 24 27 48 39 31 17 35 21 15 17 -33 -6 -47 11
-16 21 26 8 118 101 157 159 49 72 93 155 88 168 -2 6 -16 -13 -32 -43 -51
-101 -133 -206 -196 -251 l-27 -19 3 45 c3 49 7 54 86 112 31 23 71 61 90 84
l33 42 -45 -26 c-26 -15 -78 -38 -117 -51 -39 -14 -79 -30 -89 -36 -32 -19 46
-1 105 25 28 13 52 22 52 20 0 -3 -19 -19 -42 -35 -24 -17 -50 -42 -58 -56
-21 -35 -126 -78 -157 -64 -25 11 -31 30 -9 30 24 0 63 57 76 111 17 68 7 160
-22 218 -23 45 -23 47 -7 96 35 108 34 114 -16 46 -46 -62 -46 -63 -85 -56
-77 13 -154 -28 -215 -115 l-17 -25 6 25 c3 14 9 60 13 103 3 45 11 82 19 88
8 6 14 20 14 31 0 22 56 158 72 173 10 10 6 -128 -8 -227 -5 -33 -3 -48 5 -48
6 0 11 10 11 23 0 12 7 107 15 212 14 186 14 229 0 163z m169 -410 c-9 -31
-11 -33 -29 -18 -15 12 -14 15 7 26 30 17 30 17 22 -8z m-24 -56 c47 -47 63
-102 58 -199 -4 -76 -23 -117 -67 -139 -35 -18 -36 -23 -9 -52 l25 -27 -67
-168 c-58 -147 -73 -175 -116 -219 -59 -61 -158 -128 -190 -128 -37 0 -165 72
-225 127 -50 47 -64 69 -118 190 -55 121 -61 139 -51 166 15 43 13 47 -20 59
-42 14 -66 93 -51 170 28 153 99 248 185 248 52 0 198 -188 232 -299 11 -34
22 -61 25 -61 4 0 14 21 24 48 30 81 98 205 135 246 51 57 87 76 144 76 43 0
53 -4 86 -38z m120 -400 c0 -40 -31 -119 -61 -155 -26 -32 -98 -87 -112 -87
-4 0 37 110 73 197 5 12 26 31 47 42 47 25 53 25 53 3z m-955 -54 c29 -28 57
-70 79 -120 19 -43 33 -78 30 -78 -3 0 -24 9 -47 21 -50 25 -94 64 -113 101
-16 32 -19 118 -3 118 5 0 30 -19 54 -42z"/>
<path d="M1569 1080 c-2 -113 -2 -209 0 -214 2 -5 10 7 18 25 8 19 35 57 61
84 l47 50 -58 -55 -57 -54 0 43 c0 38 6 49 57 104 43 46 46 51 12 20 -24 -24
-49 -43 -54 -43 -6 0 -9 18 -9 41 1 34 9 48 45 85 50 51 44 59 -10 12 l-36
-32 -3 38 c-2 21 1 43 7 49 13 13 15 40 2 33 -5 -4 -11 0 -14 6 -3 7 -7 -79
-8 -192z"/>
<path d="M950 1195 c-29 -30 -55 -62 -56 -71 -2 -10 26 11 61 46 35 35 62 67
59 72 -7 11 -4 14 -64 -47z"/>
<path d="M1454 1128 c-50 -51 -94 -102 -98 -113 -9 -26 161 141 180 178 8 15
13 27 12 27 -2 0 -44 -42 -94 -92z"/>
<path d="M1050 1175 c-13 -14 -21 -27 -18 -30 2 -3 17 9 33 25 16 17 24 30 19
30 -6 0 -21 -11 -34 -25z"/>
<path d="M1100 1105 c-18 -19 -31 -37 -29 -40 3 -2 23 13 44 35 22 22 35 40
29 40 -6 0 -25 -16 -44 -35z"/>
<path d="M1011 1115 c-2 -45 12 -66 60 -91 27 -13 49 -21 49 -16 0 4 -19 17
-43 29 -35 17 -45 28 -54 59 -6 22 -11 30 -12 19z"/>
<path d="M975 1073 c13 -38 12 -44 -21 -90 -9 -13 -13 -23 -8 -23 5 0 20 16
33 35 22 32 23 39 12 75 -6 22 -16 40 -20 40 -5 0 -3 -17 4 -37z"/>
<path d="M1451 1016 c-40 -40 -69 -76 -64 -79 5 -3 45 30 88 74 44 43 73 79
65 79 -9 0 -48 -33 -89 -74z"/>
<path d="M1160 1055 c-13 -14 -21 -27 -18 -30 2 -3 15 6 28 20 13 14 21 27 18
30 -2 3 -15 -6 -28 -20z"/>
<path d="M900 1025 c-18 -19 -31 -37 -29 -40 3 -2 23 13 44 35 22 22 35 40 29
40 -6 0 -25 -16 -44 -35z"/>
<path d="M1130 915 c-46 -46 -82 -87 -79 -89 3 -3 43 33 89 79 46 46 82 87 79
89 -3 3 -43 -33 -89 -79z"/>
<path d="M1000 965 c-28 -29 -19 -34 12 -5 19 18 24 18 56 5 40 -17 42 -18 42
-7 0 7 -64 32 -82 32 -2 0 -15 -11 -28 -25z"/>
<path d="M1495 940 c-27 -27 -47 -52 -44 -55 3 -2 27 18 54 45 27 27 47 52 44
55 -3 2 -27 -18 -54 -45z"/>
<path d="M915 920 c-27 -30 -12 -34 15 -5 13 14 19 25 13 25 -5 0 -18 -9 -28
-20z"/>
<path d="M1010 905 c-18 -19 -31 -37 -29 -40 3 -2 23 13 44 35 22 22 35 40 29
40 -6 0 -25 -16 -44 -35z"/>
<path d="M1328 893 c-14 -16 -30 -36 -35 -46 -9 -16 -12 -15 -34 17 -34 50
-85 65 -60 18 15 -29 14 -57 -4 -72 -22 -18 -47 5 -39 36 7 29 -12 33 -21 4
-17 -54 42 -93 77 -50 10 12 18 34 18 49 1 25 2 24 20 -11 28 -53 37 -54 62
-6 l23 43 3 -30 c2 -16 8 -36 14 -42 31 -38 102 13 78 56 -6 12 -15 21 -20 21
-13 0 -13 -7 0 -30 12 -22 -11 -46 -35 -36 -17 6 -20 58 -5 87 16 30 -11 24
-42 -8z"/>
<path d="M1504 839 c-22 -24 -24 -29 -8 -21 24 13 49 40 42 47 -2 3 -18 -9
-34 -26z"/>
<path d="M1475 770 c-104 -67 -142 -86 -152 -78 -15 12 -17 -4 -5 -34 6 -15
12 -14 54 12 27 17 61 30 78 30 22 0 30 5 30 18 0 14 57 62 74 62 2 0 -3 -19
-12 -42 -13 -32 -25 -45 -54 -56 -44 -17 -51 -36 -10 -26 62 15 70 22 91 81
12 32 33 68 48 79 22 19 25 45 5 43 -4 0 -70 -40 -147 -89z"/>
<path d="M935 830 c-3 -5 3 -18 15 -30 11 -11 20 -27 20 -35 0 -9 9 -33 20
-55 15 -30 29 -41 57 -49 80 -23 97 -6 20 19 -32 10 -42 20 -58 57 -10 25 -19
46 -19 48 0 11 92 -50 101 -66 5 -10 20 -19 32 -19 12 0 46 -14 76 -30 30 -17
55 -29 56 -28 8 11 14 58 7 58 -4 0 -14 16 -21 35 -7 19 -16 35 -21 35 -11 0
5 -47 22 -67 28 -34 -11 -18 -138 56 -138 81 -158 89 -169 71z"/>
<path d="M1316 761 c-10 -10 -14 -21 -9 -24 4 -3 16 6 26 19 21 28 8 32 -17 5z"/>
<path d="M1280 719 c0 -5 5 -7 10 -4 6 3 10 8 10 11 0 2 -4 4 -10 4 -5 0 -10
-5 -10 -11z"/>
<path d="M1386 611 c-26 -27 -44 -51 -39 -54 12 -8 96 78 92 92 -3 7 -26 -11
-53 -38z"/>
<path d="M1543 652 c-7 -4 -21 -37 -33 -72 -11 -36 -31 -84 -45 -108 -13 -23
-20 -40 -15 -37 17 11 58 89 71 135 7 25 21 55 32 68 20 21 14 29 -10 14z"/>
<path d="M1131 578 c-35 -37 -62 -70 -60 -73 3 -2 36 26 73 64 37 38 64 70 60
73 -5 2 -38 -27 -73 -64z"/>
<path d="M1065 620 c-27 -10 -49 -37 -37 -44 5 -3 22 8 37 24 31 32 31 33 0
20z"/>
<path d="M1210 545 c-46 -46 -82 -87 -79 -89 3 -3 42 32 87 77 102 103 97 97
86 97 -5 0 -47 -38 -94 -85z"/>
<path d="M1453 556 c-15 -13 -25 -27 -22 -30 3 -3 18 8 34 24 35 36 27 40 -12
6z"/>
<path d="M1280 530 c-35 -7 -35 -7 -10 -17 16 -7 32 -7 43 -1 17 9 24 29 10
27 -5 -1 -24 -5 -43 -9z"/>
<path d="M1376 505 c-10 -8 -45 -17 -77 -21 -33 -4 -59 -10 -59 -14 0 -12 78
-1 128 17 23 8 42 19 42 24 0 13 -12 11 -34 -6z"/>
<path d="M1205 430 c-15 -17 -16 -20 -3 -20 19 0 42 26 30 34 -5 3 -17 -3 -27
-14z"/>
<path d="M1283 440 c-13 -5 -23 -14 -23 -20 0 -7 6 -8 19 0 11 5 31 10 45 10
14 0 26 5 26 10 0 12 -37 12 -67 0z"/>
<path d="M1280 385 c-7 -8 -8 -15 -2 -15 5 0 15 7 22 15 7 8 8 15 2 15 -5 0
-15 -7 -22 -15z"/>
<path d="M1707 782 c-15 -17 -15 -18 11 -17 17 0 28 6 30 18 5 22 -20 22 -41
-1z m33 -2 c0 -5 -4 -10 -10 -10 -5 0 -10 5 -10 10 0 6 5 10 10 10 6 0 10 -4
10 -10z"/>
<path d="M800 766 c0 -28 15 -42 26 -24 5 8 18 -1 41 -28 l33 -39 -20 40 c-19
37 -55 74 -72 75 -5 0 -8 -11 -8 -24z"/>
<path d="M1594 1594 c-18 -14 -18 -15 4 -4 22 11 22 10 16 -32 -3 -24 -15 -55
-25 -70 -23 -33 -25 -45 -4 -28 13 11 14 6 10 -39 -2 -28 0 -51 5 -51 16 0 68
50 73 71 4 15 -4 10 -28 -18 -18 -21 -35 -36 -38 -33 -2 3 1 39 9 80 15 86 18
140 6 140 -5 0 -17 -7 -28 -16z"/>
<path d="M1660 1549 c0 -5 5 -7 10 -4 6 3 10 8 10 11 0 2 -4 4 -10 4 -5 0 -10
-5 -10 -11z"/>
<path d="M910 1536 c0 -40 24 -204 31 -216 7 -11 9 -3 6 27 -3 28 0 49 11 65
15 21 15 22 -1 9 -14 -11 -18 -11 -23 3 -4 9 -4 35 -1 56 3 27 1 43 -9 51 -8
6 -14 8 -14 5z"/>
<path d="M1140 1495 c-18 -19 -31 -37 -29 -40 3 -2 23 13 44 35 22 22 35 40
29 40 -6 0 -25 -16 -44 -35z"/>
<path d="M1981 1398 c-6 -29 -17 -93 -25 -142 -13 -86 -16 -91 -59 -132 -24
-24 -47 -41 -49 -38 -9 9 -88 -8 -82 -18 4 -5 15 -8 25 -5 27 7 24 -4 -8 -29
-47 -37 -19 -37 30 0 25 19 47 32 50 30 2 -2 51 18 108 46 102 49 104 61 3 22
l-52 -19 18 31 c11 18 27 87 39 165 21 137 22 187 2 89z"/>
<path d="M668 1425 c-8 -9 4 -66 14 -63 5 2 9 7 9 11 -1 4 -1 18 -1 32 0 23
-10 32 -22 20z"/>
<path d="M803 1406 c3 -7 -8 -26 -24 -42 -16 -15 -29 -32 -29 -38 0 -5 18 8
40 29 45 43 47 50 24 59 -11 4 -15 2 -11 -8z"/>
<path d="M1154 1398 l-19 -23 23 19 c21 18 27 26 19 26 -2 0 -12 -10 -23 -22z"/>
<path d="M631 1370 c0 -8 4 -24 8 -34 6 -15 10 -16 16 -7 4 7 3 16 -2 20 -6 3
-13 13 -16 21 -5 13 -5 13 -6 0z"/>
<path d="M845 1318 l-40 -43 43 40 c39 36 47 45 39 45 -2 0 -21 -19 -42 -42z"/>
<path d="M700 1331 c0 -6 -5 -10 -12 -8 -9 1 -12 -16 -10 -63 4 -82 19 -143
35 -137 7 3 10 11 9 18 -9 34 -22 127 -22 152 0 39 16 25 23 -20 4 -21 24 -74
46 -118 36 -75 39 -78 37 -43 0 21 -6 38 -12 38 -11 0 -29 46 -25 64 1 4 -5
13 -13 20 -8 6 -17 22 -21 35 -8 25 -7 25 38 -15 20 -17 78 -46 83 -41 3 3
-14 16 -38 30 -24 14 -60 42 -80 62 -21 20 -38 31 -38 26z"/>
<path d="M1175 1299 c-11 -17 1 -21 15 -4 8 9 8 15 2 15 -6 0 -14 -5 -17 -11z"/>
<path d="M500 1133 c0 -34 159 -208 183 -200 5 1 7 6 5 9 -8 18 -188 200 -188
191z"/>
<path d="M749 1112 c5 -9 20 -26 33 -37 l23 -20 -17 21 c-10 11 -18 25 -18 31
0 6 -7 13 -15 17 -12 4 -13 2 -6 -12z"/>
<path d="M670 1081 c0 -5 7 -12 16 -15 16 -6 16 -8 0 -24 -25 -28 -19 -38 7
-14 22 20 27 21 56 9 17 -7 28 -17 24 -21 -4 -4 1 -4 10 0 10 4 15 10 10 15
-15 15 -123 59 -123 50z"/>
<path d="M744 978 l-19 -23 23 19 c21 18 27 26 19 26 -2 0 -12 -10 -23 -22z"/>
<path d="M594 968 c10 -15 24 -29 33 -32 9 -4 13 -9 9 -13 -8 -9 35 -54 45
-47 5 3 14 -6 21 -20 6 -14 15 -26 20 -26 15 0 8 27 -12 45 -30 27 -24 33 23
24 23 -4 53 -8 67 -8 14 1 -13 8 -58 18 -67 13 -92 23 -124 50 -36 30 -39 31
-24 9z m71 -68 c10 -11 16 -20 13 -20 -3 0 -13 9 -23 20 -10 11 -16 20 -13 20
3 0 13 -9 23 -20z"/>
<path d="M1852 750 c-12 -16 -39 -39 -60 -50 -25 -14 -29 -19 -12 -14 39 10
68 32 85 64 20 38 15 38 -13 0z"/>
</g>
</svg>
