<?xml version="1.0" encoding="UTF-8" standalone="no"?>
<!-- Created with Inkscape (http://www.inkscape.org/) -->

<svg
   width="210mm"
   height="297mm"
   viewBox="0 0 210 297"
   version="1.1"
   id="svg5"
   inkscape:version="1.1 (c68e22c387, 2021-05-23)"
   sodipodi:docname="SHENG.svg"
   xmlns:inkscape="http://www.inkscape.org/namespaces/inkscape"
   xmlns:sodipodi="http://sodipodi.sourceforge.net/DTD/sodipodi-0.dtd"
   xmlns="http://www.w3.org/2000/svg"
   xmlns:svg="http://www.w3.org/2000/svg">
  <sodipodi:namedview
     id="namedview7"
     pagecolor="#ffffff"
     bordercolor="#666666"
     borderopacity="1.0"
     inkscape:pageshadow="2"
     inkscape:pageopacity="0.0"
     inkscape:pagecheckerboard="0"
     inkscape:document-units="mm"
     showgrid="false"
     inkscape:zoom="0.70377385"
     inkscape:cx="397.14462"
     inkscape:cy="556.28665"
     inkscape:window-width="1920"
     inkscape:window-height="986"
     inkscape:window-x="-11"
     inkscape:window-y="-11"
     inkscape:window-maximized="1"
     inkscape:current-layer="layer1" />
  <defs
     id="defs2" />
  <g
     inkscape:label="圖層 1"
     inkscape:groupmode="layer"
     id="layer1">
    <path
       style="fill:#000000;fill-opacity:1;fill-rule:nonzero;stroke:none;stroke-width:0.264583"
       id="path64"
       d="m 16.326644,76.7023 c 14.721122,0.03776 29.441245,0.302974 44.156603,0.707538 4.876911,0.152927 9.759841,0.363352 14.609749,0.925526 1.715563,0.198858 3.239397,0.397023 4.888158,0.868455 0.521584,0.149138 1.019815,0.370327 1.529726,0.55549 0.383508,0.243975 0.797718,0.445344 1.15053,0.731925 1.492829,1.212582 1.922772,3.169983 2.261706,4.958508 0.0834,0.639138 0.215601,0.96841 -0.0269,1.584733 -0.398158,1.011941 -1.532668,1.675122 -2.333667,2.312281 -0.406271,0.323167 -0.809091,0.650647 -1.213636,0.975971 -3.478683,2.844027 -6.752381,5.917784 -10.294623,8.686085 -2.660472,1.822608 -5.456062,3.443318 -8.255365,5.040988 -0.137466,0.0785 0.532347,-0.34227 0.395306,-0.26307 -5.790893,3.34681 -4.51718,1.26822 -6.010616,4.52086 0.737082,0.60601 1.388602,1.33451 2.211247,1.81803 2.094638,1.23115 6.943231,2.94327 9.007549,3.74594 2.418279,0.9403 7.672925,3.0113 10.119061,4.07315 1.453367,0.63089 2.878857,1.32416 4.318286,1.98624 3.136564,1.54858 6.226032,3.25272 8.62706,5.85172 0.56661,0.61333 1.132858,1.24857 1.531657,1.98219 1.059772,1.9495 0.761037,2.77637 0.753948,4.96635 -0.163586,0.95253 -0.256436,1.91996 -0.490759,2.85761 -0.521092,2.08514 -1.467522,4.38333 -2.291803,6.35682 -1.030531,2.46729 -2.151046,4.85544 -3.434177,7.19883 -0.425572,0.56774 -1.676313,2.6475 -2.78152,2.32746 -0.451033,-0.1306 1.138121,-1.08483 0.690811,-1.22767 -1.095007,-0.34966 -2.28355,0.2742 -3.430333,0.35288 -2.768031,0.18992 -5.355855,0.17039 -8.128929,0.19448 -4.934482,-0.003 -9.866942,-0.15579 -14.797201,-0.34572 0,0 -3.14384,2.27035 -3.14384,2.27035 v 0 c 5.01065,0.0967 10.021745,0.18299 15.033469,0.19102 2.546479,-0.0143 5.544984,-0.002 8.093429,-0.13092 1.134671,-0.0575 2.306545,0.0492 3.397949,-0.2664 2.020877,-0.58442 3.926363,-1.51988 5.83534,-2.40379 0.60778,-0.28142 1.204076,-0.62438 1.693061,-1.08207 0.423976,-0.39685 0.661741,-0.9545 0.992613,-1.43175 1.218825,-2.34742 2.299386,-4.73563 3.303188,-7.18442 0.794782,-1.93888 1.80126,-4.40408 2.30219,-6.44899 0.234572,-0.95759 0.316712,-1.94619 0.475067,-2.91929 -0.0145,-2.31877 0.29422,-3.14595 -0.851855,-5.19542 -0.418102,-0.74767 -1.010475,-1.38947 -1.599509,-2.01145 -2.474907,-2.61331 -5.627084,-4.31608 -8.838324,-5.85253 -1.455706,-0.65687 -2.89823,-1.34377 -4.36712,-1.9706 -1.239491,-0.52893 -9.016738,-3.63039 -10.127792,-4.07364 -2.783682,-1.11054 -6.080448,-2.28044 -8.722146,-3.80262 -0.67628,-0.38968 -1.241801,-0.94591 -1.862701,-1.41887 0.204026,-0.37775 0.837824,-0.76807 0.612074,-1.13325 -0.196122,-0.31725 -1.310968,0.71174 -0.988401,0.52449 4.772048,-2.7702 9.667594,-5.36665 14.221327,-8.494816 3.548235,-2.802001 6.840453,-5.898189 10.371063,-8.720815 1.106234,-0.884512 3.104206,-2.147519 3.497665,-3.587461 0.180329,-0.659958 0.04958,-1.035905 -0.05141,-1.692389 -0.396613,-1.890101 -0.886005,-3.915595 -2.454257,-5.206516 -0.374094,-0.30794 -0.812958,-0.527444 -1.219438,-0.791165 C 84.157221,77.423972 83.636452,77.196602 83.09135,77.04674 81.360811,76.570969 79.853646,76.407398 78.047243,76.229233 73.090632,75.740362 68.10699,75.5974 63.130371,75.495922 48.570588,75.222406 34.004758,75.071826 19.455101,74.429344 c 0,0 -3.128457,2.272956 -3.128457,2.272956 z" />
    <path
       style="fill:#000000;fill-opacity:1;fill-rule:nonzero;stroke:none;stroke-width:0.264583"
       id="path66"
       d="m 38.303017,82.441348 c 1.439302,4.498226 2.316559,9.15281 3.401264,13.74291 1.018849,4.311432 2.087927,8.610842 3.124406,12.918072 2.519418,10.34509 4.48787,20.91 4.871865,31.57738 0.231892,6.44193 -0.118427,11.8355 -0.387754,18.26243 -1.204677,15.5687 -2.968041,31.08568 -4.216633,46.6507 -0.288703,4.04432 -0.51652,8.09066 -0.845373,12.13184 0,0 3.295097,-1.64993 3.295097,-1.64993 v 0 c 0.236429,-4.00491 0.374216,-8.01322 0.620077,-12.01782 0.444784,-6.67831 0.958345,-13.34622 1.559082,-20.01268 0.527354,-5.8521 1.138716,-11.69653 1.648526,-17.55019 0.25967,-2.98152 0.474324,-5.9668 0.711483,-8.9502 0.2218,-5.552 0.609401,-12.77376 0.429239,-18.3249 -0.177954,-5.48307 -0.924333,-11.23031 -1.761258,-16.64493 -0.420684,-2.72167 -0.871878,-5.43988 -1.410636,-8.14067 -0.462193,-2.31695 -1.060733,-4.60462 -1.591098,-6.90692 -1.007902,-4.31472 -2.040483,-8.656753 -2.982662,-12.987329 -1.012846,-4.655381 -1.828601,-9.355614 -3.010635,-13.973132 0,0 -3.45499,1.875369 -3.45499,1.875369 z" />
    <path
       style="fill:#000000;fill-opacity:1;fill-rule:nonzero;stroke:none;stroke-width:0.264583"
       id="path68"
       d="m 125.3722,79.823036 c -1.60573,2.231057 -3.52176,4.210177 -5.28954,6.308053 -0.60923,0.722998 -4.53072,5.539994 -4.99517,6.109724 -3.0142,3.622702 -5.94972,7.305614 -8.74518,11.099367 0,0 3.43046,-1.48353 3.43046,-1.48353 v 0 c 2.73414,-3.779957 5.61749,-7.444801 8.61429,-11.020891 1.33113,-1.615003 3.70212,-4.511103 5.10656,-6.143215 1.84386,-2.142767 3.83595,-4.167433 5.48821,-6.469348 0,0 -3.60963,1.59984 -3.60963,1.59984 z" />
    <path
       style="fill:#000000;fill-opacity:1;fill-rule:nonzero;stroke:none;stroke-width:0.264583"
       id="path70"
       d="m 108.1555,125.96991 c 15.90281,-2.74035 31.8296,-5.3314 47.7819,-7.76648 5.52192,-0.81464 11.04272,-1.64498 16.5833,-2.32533 1.95392,-0.23993 3.83158,-0.48335 5.7972,-0.5255 0.72028,-0.0155 1.44042,0.0366 2.16064,0.0549 0.5793,0.0546 1.1586,0.10912 1.7379,0.16368 0,0 3.1154,-2.22017 3.1154,-2.22017 v 0 c -0.59534,-0.0533 -1.19069,-0.10664 -1.78604,-0.15996 -0.73808,-0.0193 -1.47615,-0.0763 -2.21426,-0.0578 -2.05784,0.0516 -3.89475,0.32393 -5.94617,0.60377 -5.65629,0.77156 -11.28985,1.6979 -16.92997,2.57675 -15.69887,2.50021 -31.38914,5.0636 -47.12123,7.34668 0,0 -3.17867,2.30944 -3.17867,2.30944 z" />
    <path
       style="fill:#000000;fill-opacity:1;fill-rule:nonzero;stroke:none;stroke-width:0.264583"
       id="path72"
       d="m 121.43843,98.259584 c -0.0991,0.507463 -0.24497,1.007994 -0.29722,1.522391 -0.19303,1.900495 -0.47769,8.139945 -0.52431,9.583965 -0.19559,6.05834 -0.17926,12.12477 -0.20486,18.18542 0.11381,5.30906 -0.28382,10.66157 0.38861,15.94857 0.27185,2.13738 0.52272,2.95625 1.00948,4.97244 0,0 3.31973,-1.7952 3.31973,-1.7952 v 0 c -0.53261,-2.05993 -0.75073,-2.68059 -1.05554,-4.88442 -0.72375,-5.233 -0.41733,-10.54144 -0.59755,-15.80295 -0.0258,-6.05702 -0.0712,-12.12075 0.22483,-18.17319 0.15068,-3.08069 0.40621,-6.61291 0.90209,-9.703208 0.0858,-0.534459 0.26719,-1.049102 0.40078,-1.573652 0,0 -3.56604,1.719834 -3.56604,1.719834 z" />
    <path
       style="fill:#000000;fill-opacity:1;fill-rule:nonzero;stroke:none;stroke-width:0.264583"
       id="path74"
       d="m 156.62977,85.222185 c 0.64892,4.935077 0.15677,9.899443 0.0275,14.846485 -0.0395,1.51187 -0.0392,3.02451 -0.0588,4.53676 0.24195,9.29917 0.62768,18.59376 0.90683,27.89193 0.0344,3.4746 0.13204,7.0364 -0.92643,10.38315 -0.26707,1.01067 -0.96867,1.75466 -1.56578,2.5702 -0.39761,0.54306 -0.46903,0.72474 -0.79482,1.32503 -0.1071,0.25121 -0.2142,0.50242 -0.3213,0.75364 0,0 3.56486,-1.63135 3.56486,-1.63135 v 0 c 0.11266,-0.24 0.22532,-0.47999 0.33798,-0.71998 0.78281,-1.31795 1.88381,-2.45256 2.30056,-3.96595 0.93364,-3.37773 0.79156,-6.93146 0.6862,-10.40317 -0.46303,-9.26436 -0.98617,-18.53098 -1.02036,-27.80964 0.0405,-1.51925 0.0636,-3.039062 0.12162,-4.557744 0.13874,-3.632851 0.2509,-3.824647 0.35115,-7.316253 0.0816,-2.842858 0.0471,-3.081015 -0.0574,-5.787607 -0.0249,-0.643266 -0.0547,-1.286327 -0.082,-1.929492 0,0 -3.46971,1.813991 -3.46971,1.813991 z" />
    <path
       style="fill:#000000;fill-opacity:1;fill-rule:nonzero;stroke:none;stroke-width:0.264583"
       id="path76"
       d="m 100.15247,172.72964 c 0.70192,-0.16846 1.39823,-0.36231 2.10576,-0.50537 2.95454,-0.59738 5.07946,-0.8485 8.17934,-1.25818 6.0894,-0.8048 12.18387,-1.54218 18.26642,-2.39884 7.04123,-0.87892 13.93217,-2.61644 20.94433,-3.65942 4.02955,-0.62063 8.09777,-0.56315 12.15882,-0.49681 4.26583,0.0611 8.53156,0.12932 12.79724,0.20002 0,0 3.07196,-2.2267 3.07196,-2.2267 v 0 c -4.27022,-0.0246 -8.54054,-0.0699 -12.80938,-0.18673 -4.07792,-0.10278 -8.16181,-0.18115 -12.20863,0.45475 -7.1144,1.05605 -14.07831,2.93886 -21.21737,3.8664 -6.66656,0.9657 -5.22778,0.7962 -12.07846,1.62572 -5.37893,0.65132 -10.81079,1.07002 -16.11737,2.20396 0,0 -3.09266,2.3812 -3.09266,2.3812 z" />
    <path
       style="fill:#000000;fill-opacity:1;fill-rule:nonzero;stroke:none;stroke-width:0.264583"
       id="path78"
       d="m 133.79434,147.73525 c 0.92748,2.94305 2.02764,5.82433 2.91367,8.78035 1.09219,3.45452 1.8823,7.00392 2.18478,10.61889 0.0643,0.76822 0.0859,1.53942 0.1289,2.30913 -0.006,5.44068 -0.0897,10.89799 -0.54308,16.32285 -0.12462,1.49109 -0.30042,2.97746 -0.45064,4.46618 -0.87277,7.69805 -2.91502,15.17762 -4.75644,22.68051 -0.49737,1.90703 -0.84365,3.84628 -1.1753,5.787 0,0 3.45128,-1.68859 3.45128,-1.68859 v 0 c 0.2991,-1.91512 0.62535,-3.82606 1.08219,-5.71145 1.74265,-7.50344 3.69099,-14.9817 4.58351,-22.65007 0.70957,-6.95658 1.23875,-13.93863 1.1587,-20.93722 -0.044,-0.77713 -0.0667,-1.55575 -0.13196,-2.33138 -0.30609,-3.63852 -1.11336,-7.20425 -2.20333,-10.68366 -0.86027,-2.97813 -1.9582,-5.87718 -2.78766,-8.86515 0,0 -3.45462,1.90261 -3.45462,1.90261 z" />
    <path
       style="fill:#000000;fill-opacity:1;fill-rule:nonzero;stroke:none;stroke-width:0.264583"
       id="path80"
       d="m 80.07828,224.79356 c 5.933683,-1.10794 11.905932,-2.0181 17.881711,-2.86964 8.609049,-1.04571 17.153619,-2.54025 25.746599,-3.69665 0.9961,-0.11181 1.99106,-0.2342 2.98829,-0.33542 1.54846,-0.15719 3.67772,-0.34702 5.24181,-0.36339 3.4675,-0.0363 6.93769,0.32303 10.38673,0.61836 1.39329,0.11173 2.78558,0.23668 4.17987,0.33521 3.43608,0.24281 4.54372,0.32764 7.94583,0.24989 3.46081,-0.0791 6.88373,-0.44095 10.31678,-0.85209 3.81133,-0.56399 1.9958,-0.26078 5.44944,-0.89243 0,0 2.99282,-2.26146 2.99282,-2.26146 v 0 c -3.48945,0.68734 -1.65783,0.36093 -5.49829,0.9598 -4.7121,0.58686 -9.44443,1.07176 -14.20218,0.94812 -1.36352,-0.0354 -2.72446,-0.14114 -4.08508,-0.23686 -1.38882,-0.0977 -2.77509,-0.2289 -4.16264,-0.34335 -3.41548,-0.32801 -6.86666,-0.74471 -10.3046,-0.74009 -2.78357,0.004 -5.54778,0.42424 -8.30844,0.71556 -8.63438,1.20707 -17.21685,2.76664 -25.87731,3.79456 -5.859883,0.76702 -11.702463,1.6558 -17.538375,2.58263 0,0 -3.152965,2.38725 -3.152965,2.38725 z" />
  </g>
</svg>
