<?xml version="1.0" encoding="UTF-8" standalone="no"?>
<!-- Created with Inkscape (http://www.inkscape.org/) -->

<svg
   width="210mm"
   height="297mm"
   viewBox="0 0 210 297"
   version="1.1"
   id="svg5"
   inkscape:version="1.1 (c68e22c387, 2021-05-23)"
   sodipodi:docname="YEN.svg"
   xmlns:inkscape="http://www.inkscape.org/namespaces/inkscape"
   xmlns:sodipodi="http://sodipodi.sourceforge.net/DTD/sodipodi-0.dtd"
   xmlns="http://www.w3.org/2000/svg"
   xmlns:svg="http://www.w3.org/2000/svg">
  <sodipodi:namedview
     id="namedview7"
     pagecolor="#ffffff"
     bordercolor="#666666"
     borderopacity="1.0"
     inkscape:pageshadow="2"
     inkscape:pageopacity="0.0"
     inkscape:pagecheckerboard="0"
     inkscape:document-units="mm"
     showgrid="false"
     inkscape:zoom="0.70377385"
     inkscape:cx="397.14462"
     inkscape:cy="442.61377"
     inkscape:window-width="1920"
     inkscape:window-height="986"
     inkscape:window-x="-11"
     inkscape:window-y="-11"
     inkscape:window-maximized="1"
     inkscape:current-layer="layer1" />
  <defs
     id="defs2" />
  <g
     inkscape:label="圖層 1"
     inkscape:groupmode="layer"
     id="layer1">
    <path
       style="fill:#000000;fill-opacity:1;fill-rule:nonzero;stroke:none;stroke-width:0.264583"
       id="path97"
       d="m 52.993218,57.021348 c 2.533621,3.410059 5.319027,6.623153 8.099528,9.831822 2.29245,2.639105 4.952862,4.916691 7.416461,7.386587 1.172636,1.175631 2.465819,2.597883 3.591888,3.815961 2.474976,2.777823 4.992463,5.536588 7.249761,8.497787 0.61341,0.914818 0.361582,0.47607 0.782449,1.300395 0,0 3.414612,-1.957612 3.414612,-1.957612 v 0 c -0.479197,-0.850686 -0.199935,-0.401937 -0.85929,-1.332622 -2.339321,-2.919555 -4.889806,-5.669748 -7.390968,-8.449281 -1.049523,-1.138568 -2.504242,-2.738617 -3.597971,-3.838064 -2.451574,-2.464382 -5.131774,-4.705948 -7.3822,-7.368056 -2.771876,-3.189946 -5.564463,-6.381226 -7.958008,-9.871519 0,0 -3.366262,1.984602 -3.366262,1.984602 z" />
    <path
       style="fill:#000000;fill-opacity:1;fill-rule:nonzero;stroke:none;stroke-width:0.264583"
       id="path99"
       d="m 30.614564,80.848165 c 0.725215,-0.01101 1.450353,-0.0361 2.175648,-0.03305 4.070913,0.01712 8.143422,0.185643 12.21356,0.256088 4.177549,0.07231 8.355359,0.128873 12.532908,0.201102 12.301487,0.171685 24.581426,0.953691 36.861958,1.632511 4.296447,0.21867 8.592542,0.4636 12.893642,0.570013 1.40968,0.03663 2.81768,-0.01278 4.22307,0.114654 0.54365,0.0307 1.07599,0.14165 1.60731,0.252281 0,0 3.24326,-2.253822 3.24326,-2.253822 v 0 c -0.54262,-0.118364 -1.08374,-0.258141 -1.64153,-0.282768 -1.42471,-0.14777 -2.84838,-0.121269 -4.28007,-0.112424 -4.38604,-0.03822 -8.77018,-0.186764 -13.152421,-0.368313 C 84.945782,80.28838 72.605629,79.578675 60.249453,79.30993 54.490437,79.170749 48.730577,79.056113 42.97309,78.860916 c -2.372625,-0.08044 -4.743799,-0.201903 -7.116707,-0.273502 -0.694663,-0.02096 -1.389782,-0.02204 -2.08467,-0.03305 0,0 -3.157149,2.2938 -3.157149,2.293801 z" />
    <path
       style="fill:#000000;fill-opacity:1;fill-rule:nonzero;stroke:none;stroke-width:0.264583"
       id="path101"
       d="m 94.036755,83.326048 c -5.681086,6.622936 -13.200139,11.326842 -20.401309,16.103873 -8.71746,5.526069 -17.09215,11.555669 -25.556591,17.453529 -0.257532,0.35393 -7.020893,4.4542 -2.027237,1.3567 0,0 -2.990763,2.40217 -2.990763,2.40217 v 0 c 2.875703,-1.61401 5.804646,-3.1289 8.450506,-5.11134 8.321807,-5.8795 16.590168,-11.83816 25.196373,-17.302225 7.3806,-4.888556 15.093559,-9.705613 20.932124,-16.471662 0,0 -3.603103,1.568955 -3.603103,1.568955 z" />
    <path
       style="fill:#000000;fill-opacity:1;fill-rule:nonzero;stroke:none;stroke-width:0.264583"
       id="path103"
       d="m 35.927527,95.346252 c 2.307624,0.986409 3.80514,1.680249 6.342637,2.458307 3.694533,1.132834 8.878368,2.322181 12.599521,3.140191 4.982292,1.09525 9.984023,2.10013 14.974954,3.15531 9.174839,1.97239 18.451885,3.73666 27.340644,6.80923 0.488672,0.22284 0.977344,0.44569 1.466017,0.66853 0,0 3.19641,-2.12438 3.19641,-2.12438 v 0 c -0.51288,-0.22129 -1.02576,-0.44259 -1.53864,-0.66389 -9.076145,-2.90528 -18.505101,-4.52818 -27.801974,-6.54021 -3.341518,-0.70948 -11.541419,-2.438282 -14.899084,-3.199462 -6.298782,-1.427927 -12.677119,-2.879989 -18.47518,-5.824249 0,0 -3.205305,2.120623 -3.205305,2.120623 z" />
    <path
       style="fill:#000000;fill-opacity:1;fill-rule:nonzero;stroke:none;stroke-width:0.264583"
       id="path105"
       d="m 22.111706,139.5132 c 1.180591,-0.16058 2.372857,-0.23128 3.551394,-0.40684 3.316022,-0.49395 9.36074,-1.59288 12.373601,-2.12454 8.079015,-1.42564 8.342973,-1.46954 16.515725,-2.90235 11.576621,-2.12952 23.194256,-4.0186 34.824326,-5.82863 0,0 2.602534,-1.95432 2.602534,-1.95432 v 0 c -11.645567,1.89249 -23.280804,3.84706 -34.90251,5.88143 -6.311646,1.09558 -10.123787,1.76662 -16.405775,2.82092 -3.920768,0.65802 -8.015206,1.36853 -11.97996,1.86128 -1.121773,0.13942 -2.257884,0.14476 -3.375566,0.32538 0,0 -3.203769,2.32767 -3.203769,2.32767 z" />
    <path
       style="fill:#000000;fill-opacity:1;fill-rule:nonzero;stroke:none;stroke-width:0.264583"
       id="path107"
       d="m 48.756334,139.42147 c 1.670904,3.00562 2.860916,6.2141 3.791487,9.52002 0.859335,3.05284 1.582706,6.35362 1.856078,9.52148 0.139798,1.62 0.08715,3.25088 0.130721,4.87632 -0.166003,1.89286 -0.23299,3.79703 -0.49801,5.67859 -0.937913,6.65892 -2.705367,13.28683 -4.954333,19.61773 -1.577978,4.44204 -2.470269,6.16146 -4.383797,10.33537 -1.997765,4.00637 -4.257669,7.86659 -6.885172,11.4893 0,0 3.474775,-1.50922 3.474775,-1.50922 v 0 c 2.493703,-3.62978 4.652431,-7.46716 6.578687,-11.42864 1.817672,-4.08892 2.757699,-5.98665 4.258334,-10.3219 1.329399,-3.84057 2.763898,-9.00128 3.653764,-12.92828 0.509383,-2.24793 0.989102,-4.50601 1.331775,-6.78532 0.286422,-1.90516 0.368839,-3.83545 0.553259,-5.75318 -0.04827,-1.63883 0.0011,-3.28343 -0.144798,-4.91647 -0.287801,-3.22398 -1.032291,-6.45933 -1.869485,-9.57577 -0.89952,-3.34844 -1.988,-6.63571 -3.504023,-9.75918 0,0 -3.389262,1.93915 -3.389262,1.93915 z" />
    <path
       style="fill:#000000;fill-opacity:1;fill-rule:nonzero;stroke:none;stroke-width:0.264583"
       id="path109"
       d="m 65.320446,167.15309 c 0.714846,3.71007 0.0094,7.55594 -0.692898,11.20962 -0.799526,4.15955 -1.239944,5.63101 -2.284461,9.72508 -1.623456,5.89386 -0.808982,3.04831 -2.432954,8.53965 0,0 3.245749,-1.54017 3.245749,-1.54017 v 0 c 1.550519,-5.47259 0.763924,-2.63508 2.352712,-8.51449 1.032759,-4.08988 1.469665,-5.61801 2.310913,-9.76741 0.764823,-3.77244 1.555091,-7.70414 0.967841,-11.56166 0,0 -3.466902,1.90938 -3.466902,1.90938 z" />
    <path
       style="fill:#000000;fill-opacity:1;fill-rule:nonzero;stroke:none;stroke-width:0.264583"
       id="path111"
       d="m 78.580958,155.05052 c 0.16202,0.57447 0.356566,1.14075 0.486066,1.72341 0.567833,2.5549 0.816361,4.73523 1.079212,7.39867 0.344024,3.48601 0.613595,7.25959 0.614677,10.7618 5.29e-4,1.82556 -0.121044,3.64912 -0.181565,5.47368 -0.346371,4.4579 -1.068782,8.88445 -2.256795,13.19672 -0.249823,0.9068 -0.505606,1.81538 -0.84945,2.69087 -0.249304,0.63477 -0.616159,1.21683 -0.92424,1.82524 0,0 3.458842,-1.57223 3.458842,-1.57223 v 0 c 0.277088,-0.61532 0.606753,-1.20958 0.831265,-1.84597 0.308568,-0.87464 0.539417,-1.77561 0.763879,-2.67552 1.078021,-4.32196 1.731856,-8.73944 2.063678,-13.17966 0.05666,-1.83097 0.170792,-3.66107 0.169974,-5.49292 -0.0016,-3.47041 -0.270253,-7.36567 -0.54225,-10.82736 -0.246597,-3.13845 -0.47556,-6.30478 -1.27108,-9.36405 0,0 -3.442213,1.88732 -3.442213,1.88732 z" />
    <path
       style="fill:#000000;fill-opacity:1;fill-rule:nonzero;stroke:none;stroke-width:0.264583"
       id="path113"
       d="m 95.452024,157.88241 c 0.219914,1.35966 0.485333,2.76565 0.511897,4.14424 0.117176,6.08125 -1.576318,12.34722 -3.091545,18.17611 -2.226416,7.71513 -5.388954,15.12994 -9.602808,21.96436 -0.351573,0.49538 -0.703146,0.99077 -1.054719,1.48615 0,0 3.504017,-1.52668 3.504017,-1.52668 v 0 c 0.330859,-0.4948 0.661717,-0.98959 0.992576,-1.48439 4.035497,-6.87269 7.082449,-14.26516 9.276474,-21.92783 1.261214,-4.79945 1.601465,-5.68878 2.458062,-10.49158 0.491214,-2.75416 0.85223,-5.1589 0.852027,-7.93074 -9e-5,-1.20346 -0.247695,-2.99718 -0.4004,-4.24774 0,0 -3.445581,1.8381 -3.445581,1.8381 z" />
    <path
       style="fill:#000000;fill-opacity:1;fill-rule:nonzero;stroke:none;stroke-width:0.264583"
       id="path115"
       d="m 127.81144,69.878235 c 1.50753,-0.192881 2.02214,-0.273857 3.68627,-0.402478 9.19795,-0.71092 18.42258,-1.0082 27.64036,-1.322936 6.34388,-0.204131 12.69003,-0.312338 19.03622,-0.408876 0,0 2.81097,-2.051574 2.81097,-2.051574 v 0 c -6.41482,0.178573 -12.8297,0.355531 -19.24389,0.555707 -7.43105,0.243538 -14.8601,0.520298 -22.28983,0.800187 -1.63762,0.06169 -3.2762,0.09999 -4.91311,0.178356 -1.49254,0.07146 -2.19999,0.163692 -3.58159,0.31273 0,0 -3.1454,2.338884 -3.1454,2.338884 z" />
    <path
       style="fill:#000000;fill-opacity:1;fill-rule:nonzero;stroke:none;stroke-width:0.264583"
       id="path117"
       d="m 159.43181,70.709927 c -1.35728,1.211781 -1.69276,1.473258 -3.15119,3.023682 -1.9734,2.097865 -4.90106,5.47806 -6.73798,7.575232 -5.21269,5.951204 -2.2823,2.63511 -7.29439,8.271145 -3.76044,4.180586 -1.96593,2.217304 -5.37391,5.898626 0,0 3.37094,-1.413878 3.37094,-1.413878 v 0 c 3.2938,-3.644426 1.55367,-1.700794 5.21314,-5.837385 2.4245,-2.751916 4.83862,-5.512975 7.26812,-8.260467 3.29495,-3.726203 6.55307,-7.530475 10.34864,-10.766086 0,0 -3.64337,1.509131 -3.64337,1.509131 z" />
    <path
       style="fill:#000000;fill-opacity:1;fill-rule:nonzero;stroke:none;stroke-width:0.264583"
       id="path119"
       d="m 121.44639,92.746181 c 0.1381,0.2692 0.29636,0.528981 0.41432,0.807598 0.32122,0.758687 0.75056,2.158539 0.95809,2.888112 0.91525,3.217635 1.43045,6.482999 1.97741,9.779719 1.0407,7.06127 1.48478,14.23624 0.9002,21.36274 -0.34085,4.15517 -1.12398,8.90648 -1.73989,13.01954 -1.41894,8.8656 -3.01054,17.71501 -3.74534,26.67013 -0.39469,3.51992 0.51468,6.89676 1.46185,10.24291 0.056,0.23332 0.39937,1.52677 0.37636,1.87538 -0.004,0.0581 -0.11603,-0.0107 -0.17404,-0.0161 0,0 3.65655,-1.58917 3.65655,-1.58917 v 0 c -0.0692,-0.72295 -0.26542,-1.42594 -0.46331,-2.12213 -0.96468,-3.28252 -1.84379,-6.59665 -1.52108,-10.06017 0.57458,-8.88869 2.03061,-17.68215 3.41059,-26.4743 0.55041,-3.65365 1.47446,-9.38761 1.79386,-13.08594 0.61894,-7.16675 0.16132,-14.3857 -0.7882,-21.49941 -0.68489,-4.633148 -1.20434,-9.434822 -3.08956,-13.770427 0,0 -3.42781,1.971511 -3.42781,1.971511 z" />
    <path
       style="fill:#000000;fill-opacity:1;fill-rule:nonzero;stroke:none;stroke-width:0.264583"
       id="path121"
       d="m 125.3253,91.977079 c 8.72859,0.994164 17.53597,0.895689 26.3069,0.80531 1.88716,0.02138 3.77253,-0.09656 5.65925,-0.102534 1.10991,-0.0035 2.29319,-0.01281 3.3891,0.240337 0.90588,0.209253 1.15368,0.423746 1.91034,0.866955 0.20948,0.210669 0.44195,0.40074 0.62844,0.632007 1.61255,1.999782 1.73897,5.539994 1.85063,7.951366 -0.0303,7.47587 0.0789,14.9511 0.14208,22.42663 -0.0948,4.18845 0.0734,8.41774 -0.46862,12.58572 -0.295,2.2683 -0.53876,2.91022 -1.11731,5.10507 -1.49398,4.49482 -2.7921,9.04864 -4.00819,13.62601 -1.16522,4.58125 -0.86702,9.32414 -0.96287,14.00198 0.017,0.56904 0.0115,1.13919 0.0511,1.7071 0.0916,1.31358 0.21369,1.84906 0.49159,3.12593 0.049,0.22514 0.55542,2.3296 0.58658,2.66594 0.0221,0.2383 -0.0485,0.47617 -0.0728,0.71425 0,0 3.50514,-1.7693 3.50514,-1.7693 v 0 c -0.005,-0.25928 0.021,-0.52122 -0.0163,-0.77786 -0.0282,-0.19369 -0.59431,-2.57679 -0.60978,-2.64799 -0.26841,-1.23545 -0.38351,-1.79203 -0.47507,-3.06213 -0.0404,-0.56022 -0.0397,-1.12263 -0.0596,-1.68395 0.009,-4.6511 -0.24209,-9.36023 0.97689,-13.90406 1.20512,-4.5724 2.52183,-9.10969 3.9711,-13.61067 0.55472,-2.18743 0.80923,-2.9024 1.08393,-5.16081 0.50606,-4.16054 0.2507,-8.37512 0.32819,-12.55125 -0.0681,-7.50459 -0.15866,-15.00991 -6e-5,-22.5141 -0.10453,-2.484866 -0.19669,-5.132114 -1.31679,-7.419728 -0.36749,-0.750523 -0.66613,-0.970862 -1.23261,-1.561193 -0.78245,-0.472609 -1.10135,-0.738592 -2.03865,-0.966105 -1.13842,-0.276336 -2.35117,-0.253423 -3.50724,-0.234304 -1.92566,0.03185 -3.84781,0.195323 -5.77455,0.192572 -7.68873,0.163919 -15.4098,0.284736 -23.07464,-0.480952 -0.98182,-0.09808 -1.95465,-0.271444 -2.93198,-0.407165 0,0 -3.21416,2.206924 -3.21416,2.206924 z" />
    <path
       style="fill:#000000;fill-opacity:1;fill-rule:nonzero;stroke:none;stroke-width:0.264583"
       id="path123"
       d="m 131.8263,111.00186 c 3.29782,0.27243 6.59362,0.0506 9.88669,-0.16218 4.48553,-0.28976 5.14456,-0.36778 9.52548,-0.74128 0,0 2.85047,-2.10936 2.85047,-2.10936 v 0 c -6.32249,0.57084 -12.70802,1.28355 -19.05595,0.74341 0,0 -3.20669,2.26941 -3.20669,2.26941 z" />
    <path
       style="fill:#000000;fill-opacity:1;fill-rule:nonzero;stroke:none;stroke-width:0.264583"
       id="path125"
       d="m 125.48718,141.94729 c 0.29055,0.13987 0.57164,0.30142 0.87167,0.41961 2.39177,0.94219 4.95496,1.50138 7.42295,2.19479 2.41169,0.67759 4.82176,1.36095 7.23305,2.03998 4.32777,1.16757 2.22622,0.60378 6.30437,1.69238 0,0 3.0451,-2.09545 3.0451,-2.09545 v 0 c -4.11497,-1.05571 -1.99787,-0.50553 -6.35067,-1.65297 -3.45871,-0.96345 -6.89903,-1.97722 -10.34103,-2.99819 -1.85681,-0.55076 -2.39892,-0.63482 -4.05098,-1.32973 -0.28229,-0.11873 -0.54637,-0.27682 -0.81955,-0.41523 0,0 -3.31491,2.14481 -3.31491,2.14481 z" />
    <path
       style="fill:#000000;fill-opacity:1;fill-rule:nonzero;stroke:none;stroke-width:0.264583"
       id="path127"
       d="m 129.12224,182.53838 c 4.21672,-1.79644 8.74812,-2.75726 13.21072,-3.7358 2.08143,-0.45766 4.19242,-0.73763 6.30513,-0.9976 0,0 3.05592,-2.27807 3.05592,-2.27807 v 0 c -2.13803,0.26431 -4.27483,0.54639 -6.38115,1.01065 -4.41418,0.97044 -8.88664,1.91661 -13.10892,3.5515 0,0 -3.0817,2.44932 -3.0817,2.44932 z" />
    <path
       style="fill:#000000;fill-opacity:1;fill-rule:nonzero;stroke:none;stroke-width:0.264583"
       id="path129"
       d="m 141.26119,190.50065 c 0.11344,0.3842 0.39397,1.22745 0.33954,1.59321 -0.73961,4.97033 -6.87445,9.32486 -10.35343,12.25142 -4.26404,3.26517 -8.70572,6.28788 -13.30899,9.05283 -1.09492,0.65766 -2.18768,1.32182 -3.31808,1.91643 -0.17768,0.0935 0.63576,-0.46923 0.44543,-0.40538 -0.74077,0.24851 -1.42213,0.64772 -2.13319,0.97158 0,0 -2.94926,2.34125 -2.94926,2.34125 v 0 c 3.94938,-1.79113 2.22747,-0.94133 8.02199,-4.20811 5.73067,-3.23079 11.1775,-6.94389 16.39668,-10.94394 3.76017,-3.17512 9.8849,-7.43986 10.65046,-12.80002 0.0513,-0.35882 -0.21726,-1.26953 -0.32219,-1.66611 0,0 -3.46896,1.89684 -3.46896,1.89684 z" />
    <path
       style="fill:#000000;fill-opacity:1;fill-rule:nonzero;stroke:none;stroke-width:0.264583"
       id="path131"
       d="m 142.93351,188.21597 c 1.66128,1.98005 3.8673,3.32434 5.99832,4.72978 3.65959,2.41356 2.63122,1.73381 6.30913,4.21961 5.03981,3.3077 9.7507,7.07058 14.56887,10.68332 1.68333,1.22698 3.37211,2.44362 5.09045,3.62092 0,0 3.21853,-2.05883 3.21853,-2.05883 v 0 c -1.74024,-1.15001 -3.44522,-2.34752 -5.1342,-3.57199 -4.86521,-3.58635 -9.61586,-7.33249 -14.69302,-10.62332 -3.11326,-2.11788 -3.17598,-2.15459 -6.24231,-4.26376 -2.0441,-1.40603 -4.17407,-2.76605 -5.71404,-4.75448 0,0 -3.40173,2.01875 -3.40173,2.01875 z" />
  </g>
</svg>
