<?xml version="1.0" encoding="UTF-8" standalone="no"?>
<!-- Created with Inkscape (http://www.inkscape.org/) -->

<svg
   width="210mm"
   height="297mm"
   viewBox="0 0 210 297"
   version="1.1"
   id="svg182"
   inkscape:version="1.1 (c68e22c387, 2021-05-23)"
   sodipodi:docname="YU.svg"
   xmlns:inkscape="http://www.inkscape.org/namespaces/inkscape"
   xmlns:sodipodi="http://sodipodi.sourceforge.net/DTD/sodipodi-0.dtd"
   xmlns="http://www.w3.org/2000/svg"
   xmlns:svg="http://www.w3.org/2000/svg">
  <sodipodi:namedview
     id="namedview184"
     pagecolor="#ffffff"
     bordercolor="#666666"
     borderopacity="1.0"
     inkscape:pageshadow="2"
     inkscape:pageopacity="0.0"
     inkscape:pagecheckerboard="0"
     inkscape:document-units="mm"
     showgrid="false"
     inkscape:zoom="0.70377385"
     inkscape:cx="397.14462"
     inkscape:cy="556.28665"
     inkscape:window-width="1920"
     inkscape:window-height="986"
     inkscape:window-x="-11"
     inkscape:window-y="-11"
     inkscape:window-maximized="1"
     inkscape:current-layer="layer1" />
  <defs
     id="defs179" />
  <g
     inkscape:label="圖層 1"
     inkscape:groupmode="layer"
     id="layer1">
    <path
       style="fill:#000000;fill-opacity:1;fill-rule:nonzero;stroke:none;stroke-width:0.264583"
       id="path219"
       d="m 40.346053,62.295372 c -0.05415,0.378535 -0.04607,0.771356 -0.162457,1.1356 -0.57572,1.801744 -1.429068,3.12448 -2.527189,4.69687 -2.003475,2.868758 -4.36839,5.424191 -6.756183,7.968059 -1.931479,1.954546 -4.091035,3.642609 -6.282248,5.28819 0,0 3.50615,-1.397227 3.50615,-1.397227 v 0 c 2.149128,-1.658247 4.268679,-3.355843 6.164524,-5.308523 2.377221,-2.57006 4.734494,-5.154465 6.739102,-8.03614 1.183669,-1.701556 2.012529,-2.992847 2.641549,-4.921231 0.127688,-0.391456 0.131535,-0.81294 0.197305,-1.219409 0,0 -3.520553,1.793811 -3.520553,1.793811 z" />
    <path
       style="fill:#000000;fill-opacity:1;fill-rule:nonzero;stroke:none;stroke-width:0.264583"
       id="path221"
       d="m 42.882446,77.478953 c 7.522962,0.454318 15.00841,1.356571 22.518386,1.961168 2.349878,0.18918 4.703715,0.325517 7.055572,0.488273 6.772005,0.38591 13.550548,0.177011 20.322236,-0.04379 0,0 2.740112,-2.006505 2.740112,-2.006505 v 0 c -6.787946,0.286112 -13.583221,0.531654 -20.374702,0.126645 -2.335663,-0.171069 -4.673468,-0.315063 -7.00699,-0.513212 -4.365921,-0.370726 -8.038986,-0.81403 -12.377631,-1.266992 -0.618501,-0.06457 -6.80362,-0.674462 -8.172045,-0.839462 -0.504865,-0.06087 -1.00556,-0.152394 -1.50834,-0.228592 0,0 -3.196598,2.322463 -3.196598,2.322463 z" />
    <path
       style="fill:#000000;fill-opacity:1;fill-rule:nonzero;stroke:none;stroke-width:0.264583"
       id="path223"
       d="m 40.184932,116.82962 c 0.104968,0.41609 0.248007,0.82439 0.314904,1.24826 0.250474,1.58708 0.386012,4.12701 0.457499,5.63596 0.110993,2.34282 0.18691,4.52029 0.05918,6.86699 -0.0642,1.17947 -0.21521,2.35261 -0.322816,3.52892 -1.044262,6.92302 -1.783474,13.89188 -3.140813,20.76374 -0.411342,1.98711 -0.943086,3.94396 -1.695098,5.8295 -0.203179,0.50943 -0.69978,1.28735 -0.52633,1.92236 0.07498,0.27449 0.328364,0.46482 0.492545,0.69723 0.462688,0.19703 0.900634,0.46735 1.388068,0.59109 1.694397,0.43013 4.846561,0.64809 6.409746,0.75093 5.116848,0.33664 10.233413,0.39467 15.358927,0.4161 9.04095,-0.0892 18.082818,-0.19068 27.121836,-0.40408 0,0 2.946797,-2.15342 2.946797,-2.15342 v 0 c -9.087442,0.28673 -18.181147,0.42611 -27.27221,0.52798 -5.074012,-0.0312 -10.134991,-0.10623 -15.197182,-0.49498 -1.768824,-0.13584 -4.337775,-0.36055 -6.159833,-0.79227 -0.420524,-0.0996 -0.811205,-0.29837 -1.216806,-0.44756 -0.120401,-0.14576 -0.318156,-0.25319 -0.361201,-0.43729 -0.117131,-0.50093 0.378053,-1.45758 0.503246,-1.80509 0.681942,-1.89298 1.154906,-3.84836 1.542385,-5.82128 1.26664,-6.88503 2.028952,-13.84984 3.072334,-20.77045 0.105299,-1.18507 0.252587,-2.36716 0.315897,-3.55521 0.136154,-2.55512 0.04403,-4.35531 -0.04862,-6.90021 -0.04975,-1.36635 -0.142981,-4.29259 -0.320156,-5.78179 -0.05394,-0.45333 -0.181097,-0.89491 -0.271643,-1.34237 0,0 -3.450656,1.92694 -3.450656,1.92694 z" />
    <path
       style="fill:#000000;fill-opacity:1;fill-rule:nonzero;stroke:none;stroke-width:0.264583"
       id="path225"
       d="m 53.021647,113.85797 c 0.441116,-0.11821 0.877472,-0.25587 1.323348,-0.35462 2.054471,-0.455 4.130286,-0.80785 6.198619,-1.19499 5.1811,-0.96976 10.369806,-1.81316 15.582119,-2.59594 1.635464,-0.22054 3.270927,-0.44107 4.906391,-0.66161 0,0 2.811285,-2.10146 2.811285,-2.10146 v 0 c -1.648375,0.22841 -3.296748,0.45683 -4.94512,0.68525 -5.167911,0.76632 -10.316472,1.59972 -15.463944,2.49269 -2.004369,0.34771 -4.016456,0.65191 -6.015907,1.02688 -0.425747,0.0798 -0.844847,0.19177 -1.26727,0.28766 0,0 -3.129521,2.41614 -3.129521,2.41614 z" />
    <path
       style="fill:#000000;fill-opacity:1;fill-rule:nonzero;stroke:none;stroke-width:0.264583"
       id="path227"
       d="m 87.173833,114.03078 c -1.710189,8.06732 -4.556455,15.84789 -7.21819,23.63689 -0.796055,2.27426 -1.588751,4.54969 -2.388166,6.82278 -2.546972,7.24215 -3.170164,8.7639 -5.551167,16.32066 -1.542704,4.89619 -4.418262,14.64676 -5.77773,19.54034 -0.904407,3.25552 -1.741038,6.52949 -2.61156,9.79424 -3.080871,11.88211 -5.840039,23.84384 -8.758623,35.76567 2.774809,-1.32544 -2.168546,3.51112 -1.136939,3.11458 1.108247,-0.42601 2.156426,-1.10549 2.963119,-1.97666 0.228701,-0.24698 -0.157527,-0.6548 -0.220175,-0.98553 -0.187108,-0.98776 -0.352089,-1.97959 -0.528961,-2.96923 -0.251309,-1.40615 -0.503724,-2.8121 -0.755586,-4.21814 -0.314738,-1.59507 -0.629473,-3.19014 -0.944208,-4.78521 0,0 -3.10452,1.65644 -3.10452,1.65644 v 0 c 0.296516,1.60136 0.593034,3.20273 0.88955,4.80409 0.215164,1.42372 0.444656,2.84535 0.645493,4.27116 0.144717,1.02739 0.209423,2.06643 0.391099,3.08793 0.08843,0.49722 -0.0844,1.51578 0.417132,1.45651 3.881152,-0.45865 4.062592,-2.27804 4.714549,-5.05917 2.547745,-11.85557 5.179754,-23.69349 8.1372,-35.45525 0.864507,-3.25941 1.688838,-6.52973 2.593517,-9.77821 1.527567,-5.48511 4.126907,-14.13236 5.889482,-19.57986 2.605059,-8.05132 2.980767,-8.7102 5.725533,-16.39685 0.811819,-2.27348 1.602396,-4.5545 2.403594,-6.83174 2.765338,-7.91492 5.664756,-15.80587 7.808069,-23.91792 0,0 -3.582512,1.68248 -3.582512,1.68248 z" />
    <path
       style="fill:#000000;fill-opacity:1;fill-rule:nonzero;stroke:none;stroke-width:0.264583"
       id="path229"
       d="m 49.869724,125.39863 c 2.380639,1.61237 5.028004,2.70356 7.733983,3.63363 1.632183,0.47501 0.843737,0.26486 2.363134,0.63866 0,0 3.198132,-2.21322 3.198132,-2.21322 v 0 c -1.527188,-0.33827 -0.735388,-0.14528 -2.373222,-0.58781 -2.680735,-0.8746 -5.305269,-1.91816 -7.593788,-3.6023 0,0 -3.328239,2.13104 -3.328239,2.13104 z" />
    <path
       style="fill:#000000;fill-opacity:1;fill-rule:nonzero;stroke:none;stroke-width:0.264583"
       id="path231"
       d="m 19.337927,141.01048 c 1.564403,-0.0217 2.928292,-0.0282 4.560617,-0.16102 4.163614,-0.33869 15.940236,-1.65054 18.911523,-1.97177 19.480503,-2.10604 9.504312,-0.98662 29.452929,-3.30891 18.928593,-2.53131 9.788099,-1.23808 27.425259,-3.85288 0,0 2.176915,-1.63229 2.176915,-1.63229 v 0 c -17.782995,2.76176 -8.587629,1.42071 -27.591129,3.98854 -16.232571,1.84874 -13.27895,1.59367 -29.152397,3.09089 -4.448852,0.41963 -13.188804,1.24447 -18.250402,1.51394 -1.358683,0.0723 -2.933085,0.0392 -4.347477,0.0189 0,0 -3.185838,2.31465 -3.185838,2.31465 z" />
    <path
       style="fill:#000000;fill-opacity:1;fill-rule:nonzero;stroke:none;stroke-width:0.264583"
       id="path233"
       d="m 54.342069,143.58254 c 2.827041,1.41432 5.885527,2.29141 8.880615,3.2649 0,0 2.996002,-2.03469 2.996002,-2.03469 v 0 c -2.914484,-0.9672 -5.911491,-1.82918 -8.592601,-3.36811 0,0 -3.284016,2.1379 -3.284016,2.1379 z" />
    <path
       style="fill:#000000;fill-opacity:1;fill-rule:nonzero;stroke:none;stroke-width:0.264583"
       id="path235"
       d="m 106.63769,86.189202 c 1.78152,0.188611 2.83406,0.293886 4.75144,0.534681 1.52816,0.191913 3.05085,0.427461 4.581,0.602774 8.58345,0.983424 17.19653,1.706536 25.80293,2.450507 2.74826,0.224782 5.49652,0.449564 8.24478,0.674346 0,0 2.58836,-1.849816 2.58836,-1.849816 v 0 c -2.77084,-0.207555 -5.54169,-0.41511 -8.31253,-0.622667 -7.28001,-0.636786 -10.76949,-0.888408 -17.99614,-1.730751 -6.88433,-0.802444 -6.18351,-0.797232 -11.88145,-1.664047 -0.22161,-0.03371 -3.79883,-0.552336 -4.5717,-0.664437 0,0 -3.20669,2.26941 -3.20669,2.26941 z" />
    <path
       style="fill:#000000;fill-opacity:1;fill-rule:nonzero;stroke:none;stroke-width:0.264583"
       id="path237"
       d="m 133.98408,73.948321 c -1.66314,4.090821 -3.03436,8.292364 -4.48198,12.461584 -0.70483,2.029957 -1.42518,4.054493 -2.13777,6.081741 -0.73161,2.107904 -1.46322,4.215807 -2.19483,6.323711 -2.15742,5.846533 -4.03448,11.787943 -5.88675,17.735863 0,0 3.1104,-1.46985 3.1104,-1.46985 v 0 c 1.79644,-5.93841 3.64778,-11.85995 5.80101,-17.681481 2.41957,-6.912911 1.95202,-5.650777 4.43269,-12.450066 1.54667,-4.239295 3.05038,-8.512887 4.94683,-12.612468 0,0 -3.5896,1.610966 -3.5896,1.610966 z" />
    <path
       style="fill:#000000;fill-opacity:1;fill-rule:nonzero;stroke:none;stroke-width:0.264583"
       id="path239"
       d="m 115.16253,126.80147 c -0.62616,0.41363 -2.61028,1.0746 -1.87849,1.24089 0.92744,0.21076 1.75265,-0.7414 2.6465,-1.06636 1.55358,-0.5648 3.11984,-1.09521 4.6933,-1.60199 7.27586,-2.3434 14.63823,-4.43645 21.97056,-6.59333 9.50315,-3.00784 19.09111,-5.70453 28.81816,-7.88084 0,0 2.8567,-2.17513 2.8567,-2.17513 v 0 c -9.82787,2.28818 -19.53261,5.02989 -29.14441,8.10452 -2.60979,0.76744 -5.21958,1.53488 -7.82937,2.30231 -2.58466,0.75421 -5.17082,1.50332 -7.75399,2.26261 -2.04729,0.60177 -4.09757,1.19389 -6.13738,1.82058 -0.95382,0.29304 -5.62482,1.72716 -7.11039,2.44013 -1.63671,0.78551 -3.2049,1.70643 -4.80736,2.55965 0,0 3.67617,-1.41304 3.67617,-1.41304 z" />
    <path
       style="fill:#000000;fill-opacity:1;fill-rule:nonzero;stroke:none;stroke-width:0.264583"
       id="path241"
       d="m 165.9257,105.86224 c 2.00776,1.76365 4.0555,3.48235 6.0873,5.21849 0,0 3.16688,-1.97361 3.16688,-1.97361 v 0 c -1.99755,-1.72794 -3.99879,-3.45737 -5.88106,-5.31193 0,0 -3.37312,2.06705 -3.37312,2.06705 z" />
    <path
       style="fill:#000000;fill-opacity:1;fill-rule:nonzero;stroke:none;stroke-width:0.264583"
       id="path243"
       d="m 117.43147,151.74708 c -0.005,0.52099 0.0315,1.04407 -0.0154,1.56297 -0.44712,4.94558 -1.775,9.83446 -2.95665,14.63535 -2.03921,8.28498 -1.81291,7.2368 -4.11825,15.62565 -1.91176,6.6934 -3.98646,13.35681 -6.82602,19.72414 -1.10742,2.48324 -2.78348,5.8839 -4.429879,8.14554 -0.704683,0.96801 -1.581489,1.79816 -2.372233,2.69724 -2.878712,2.4621 -1.442231,1.38945 -4.267121,3.27387 0,0 3.505237,-1.37634 3.505237,-1.37634 v 0 c 2.729918,-1.91579 1.341642,-0.82803 4.120886,-3.31859 0.76453,-0.90989 1.61356,-1.75501 2.2936,-2.72966 1.58024,-2.26482 3.18312,-5.65459 4.2419,-8.12106 2.73274,-6.36603 4.71547,-13.00856 6.60612,-19.66245 2.09516,-7.53287 2.32736,-8.23996 4.2667,-15.70672 0.556,-2.14071 1.11005,-4.28212 1.63084,-6.43168 0.67948,-2.80455 1.37568,-5.62082 1.73461,-8.49059 0.0665,-0.53156 0.0497,-1.07025 0.0746,-1.60538 0,0 -3.48896,1.77771 -3.48896,1.77771 z" />
    <path
       style="fill:#000000;fill-opacity:1;fill-rule:nonzero;stroke:none;stroke-width:0.264583"
       id="path245"
       d="m 135.59754,148.55346 c -0.273,1.20013 -0.70144,2.95749 -0.79468,4.09634 -0.21058,2.57197 -0.1448,8.364 -0.12645,10.62946 0.0399,4.91811 0.13457,9.49709 0.2225,14.42804 -0.0162,11.99059 1.18594,23.94988 1.18952,35.9372 0,0 3.266,-1.67109 3.266,-1.67109 v 0 c -0.15435,-4.5646 -0.48712,-9.11189 -0.74825,-13.6715 -0.42097,-7.35063 -0.74813,-14.70812 -0.81777,-22.07156 -0.0218,-2.77449 -0.10311,-11.48773 -0.0802,-14.4927 0.0245,-3.22171 0.0607,-7.43471 0.46328,-10.72484 0.16963,-1.38647 0.59957,-2.78793 0.97624,-4.13482 0,0 -3.55016,1.67547 -3.55016,1.67547 z" />
    <path
       style="fill:#000000;fill-opacity:1;fill-rule:nonzero;stroke:none;stroke-width:0.264583"
       id="path247"
       d="m 154.89793,147.94013 c -1.28121,3.94509 -2.21566,7.98861 -3.1436,12.02731 -1.55114,6.75101 -1.80598,7.70844 -2.9291,14.92845 -0.43501,2.79645 -0.77755,5.60651 -1.16633,8.40976 -0.51824,6.92955 -1.37865,14.0579 0.79338,20.8258 0.53035,1.65252 1.24467,3.26844 2.1916,4.72288 2.17988,3.34817 3.83164,3.96713 7.04173,6.07617 3.36646,1.70871 6.97917,2.98646 10.75728,3.36738 1.84988,0.18651 4.34994,0.0852 6.20671,-0.14028 0.93099,-0.11306 1.84844,-0.3183 2.77266,-0.47745 0.80808,-0.2252 1.63119,-0.40215 2.42424,-0.67561 0.70331,-0.24252 1.40221,-0.51351 2.05565,-0.86915 2.66698,-1.45154 4.4855,-2.30639 6.44545,-4.22502 1.01095,-0.98965 1.16428,-1.32281 1.92948,-2.4413 0.60899,-1.12586 1.31154,-2.32406 1.21134,-3.65433 -0.0598,-0.79397 -0.26368,-1.30477 -0.4947,-2.07008 -1.74497,-3.84774 -3.6875,-7.60329 -5.60012,-11.36946 0,0 -3.15245,1.79757 -3.15245,1.79757 v 0 c 1.90463,3.75049 3.82609,7.50326 5.33758,11.43492 0.20299,0.73382 0.38767,1.20924 0.40887,1.96548 0.035,1.24989 -0.67149,2.38605 -1.25014,3.4352 -0.76067,1.06323 -0.9277,1.39905 -1.92497,2.33259 -0.45595,0.4268 -1.51579,0.57532 -1.44258,1.19555 0.0653,0.55336 2.02565,-0.91832 1.49556,-0.74665 -0.71246,0.23074 -1.36484,0.61688 -2.04727,0.92533 -0.80785,0.24123 -1.6157,0.48246 -2.42355,0.72369 -0.92164,0.17211 -1.83588,0.39006 -2.76491,0.51632 -1.84107,0.25021 -4.3405,0.38879 -6.18186,0.23409 -3.77335,-0.31703 -7.39419,-1.51562 -10.77519,-3.17662 -3.17326,-2.033 -4.80786,-2.62852 -6.99145,-5.87916 -4.93906,-7.35262 -3.73468,-16.94254 -3.18424,-25.22463 0.39486,-2.80157 0.72617,-5.61284 1.18457,-8.40472 0.97804,-5.95666 1.73319,-9.30857 3.1542,-15.01298 0.85481,-3.43151 1.63108,-6.34784 2.69101,-9.65707 0.27131,-0.84707 0.58641,-1.67948 0.87961,-2.51922 0,0 -3.50846,1.62524 -3.50846,1.62524 z" />
  </g>
</svg>
